<svg xmlns="http://www.w3.org/2000/svg" viewBox="0 0 32 32"><style>.mark{fill:#aa2b8a}@media (prefers-color-scheme:dark){.mark{fill:#d060b4}}</style><g transform="translate(0.0 0.0) scale(1.0)"><path class="mark" fill-rule="evenodd" d="M 5.57 11.73 L 12.04 9.63 A 3.8 3.8 0 0 1 16.83 12.07 L 18.93 18.54 A 3.8 3.8 0 0 1 16.49 23.32 L 10.02 25.43 A 3.8 3.8 0 0 1 5.24 22.99 L 3.13 16.52 A 3.8 3.8 0 0 1 5.57 11.73 Z M 18.34 6.96 L 25.1 7.67 A 3.8 3.8 0 0 1 28.48 11.84 L 27.77 18.61 A 3.8 3.8 0 0 1 23.6 21.99 L 16.83 21.28 A 3.8 3.8 0 0 1 13.45 17.1 L 14.16 10.34 A 3.8 3.8 0 0 1 18.34 6.96 Z"/></g></svg>