<svg xmlns="http://www.w3.org/2000/svg" viewBox="0 0 32 32" role="img" aria-hidden="true">
  <!--
    SprintLens — the mascot. Waiting — the lobby while the room fills.

    Eyes narrowed to two rests. Patient, not bored: nobody is late yet.

    Drawn as the mark is drawn: one solid rounded shape with its features
    knocked out of it by `fill-rule="evenodd"`. Same corner radius, same tilt,
    same single colour, no outlines and no second tone — which is what stops
    the character and the logo looking like two different projects.

    It is one character with a fixed, small set of poses, and it appears only
    where there is nothing else on the screen. Never on a live board: that
    space belongs to what the team wrote.

    Decorative. Where the text beside it already says the same thing its
    alternative text is empty, so a screen reader does not say it twice.
  -->
  <path
    fill="currentColor"
    fill-rule="evenodd"
    d="M 10.77 8.32 L 19.73 7.54 A 5 5 0 0 1 25.15 12.09 L 25.78 19.26 A 5 5 0 0 1
         21.23 24.68 L 12.27 25.46 A 5 5 0 0 1 6.85 20.91 L 6.22 13.74 A 5 5 0 0 1
         10.77 8.32 Z M 10.2 14.4 A 2.75 2.75 0 0 0 14.6 14.4 A 12.2 12.2 0 0 1 10.2
         14.4 Z M 17.4 14.4 A 2.75 2.75 0 0 0 21.8 14.4 A 12.2 12.2 0 0 1 17.4 14.4 Z"
  />
</svg>
